<?xml version="1.0" standalone="no"?>
<!DOCTYPE svg PUBLIC "-//W3C//DTD SVG 1.1//EN" "http://www.w3.org/Graphics/SVG/1.1/DTD/svg11.dtd">
<svg t="1766312555357" class="icon" viewBox="0 0 1024 1024" version="1.1"
     xmlns="http://www.w3.org/2000/svg" p-id="17246" xmlns:xlink="http://www.w3.org/1999/xlink"
     width="48" height="48">
  <path fill="currentColor" d="M853.333333 85.333333H256c-51.456 0-128 34.090667-128 128v597.333334c0 93.909333 76.544 128 128 128h640v-85.333334H256.512C236.8 852.821333 213.333333 845.056 213.333333 810.666667s23.466667-42.154667 43.178667-42.666667H896V128a42.666667 42.666667 0 0 0-42.666667-42.666667zM405.461333 213.333333a64.128 64.128 0 1 1 0 128.256 64.128 64.128 0 0 1 0-128.256zM512 554.666667H298.666667l128-128 64 59.690666L618.666667 341.333333l149.333333 213.333334h-256z"></path>
</svg>
