<?xml version="1.0" standalone="no"?><!DOCTYPE svg PUBLIC "-//W3C//DTD SVG 1.1//EN" "http://www.w3.org/Graphics/SVG/1.1/DTD/svg11.dtd"><svg t="1766310506943" class="icon" viewBox="0 0 1024 1024" version="1.1" xmlns="http://www.w3.org/2000/svg" p-id="9625" width="48" height="48" xmlns:xlink="http://www.w3.org/1999/xlink"><path d="M785.744 221.376 558.448 221.376l0 0.08L175.424 221.456l0 147.456c0 158.544 128.512 287.056 287.056 287.056 116.544 0 216.656-69.584 261.632-169.36l61.648 0c73.12 0 132.624-59.488 132.624-132.624S858.88 221.376 785.744 221.376zM785.744 416.816l-40.528 0c2.624-15.616 4.32-31.536 4.32-47.904l0-77.744 36.208 0c34.64 0 62.816 28.176 62.816 62.816S820.384 416.816 785.744 416.816z" p-id="9626" data-spm-anchor-id="a313x.search_index.0.i12.34ef3a81O4j8dP" class="selected" fill="#f06e8e"></path><path d="M160.88 778.8c8.032 13.168 27.04 23.84 42.464 23.84l518.272 0c15.424 0 34.432-10.672 42.464-23.84l55.264-90.544L105.632 688.256 160.88 778.8z" p-id="9627" data-spm-anchor-id="a313x.search_index.0.i13.34ef3a81O4j8dP" class="selected" fill="#f06e8e"></path></svg>